<?xml version="1.0" encoding="UTF-8" standalone="no"?>
<svg
   viewBox="0 0 400 300"
   width="406"
   height="306"
   class="illustration styles_illustrationTablet__1DWOa"
   version="1.1"
   id="svg13984"
   sodipodi:docname="CSS_Outline.svg"
   xml:space="preserve"
   inkscape:version="1.2 (dc2aedaf03, 2022-05-15)"
   xmlns:inkscape="http://www.inkscape.org/namespaces/inkscape"
   xmlns:sodipodi="http://sodipodi.sourceforge.net/DTD/sodipodi-0.dtd"
   xmlns="http://www.w3.org/2000/svg"
   xmlns:svg="http://www.w3.org/2000/svg"><defs
     id="defs13988" /><sodipodi:namedview
     id="namedview13986"
     pagecolor="#505050"
     bordercolor="#eeeeee"
     borderopacity="1"
     inkscape:showpageshadow="0"
     inkscape:pageopacity="0"
     inkscape:pagecheckerboard="0"
     inkscape:deskcolor="#505050"
     showgrid="false"
     inkscape:zoom="1.0907007"
     inkscape:cx="-13.294207"
     inkscape:cy="211.79047"
     inkscape:window-width="1440"
     inkscape:window-height="837"
     inkscape:window-x="-8"
     inkscape:window-y="-8"
     inkscape:window-maximized="1"
     inkscape:current-layer="svg13984" /><g
     id="_182_css_outline"
     data-name="#182_css_outline"
     transform="matrix(1.4730478,0,0,1.4730478,-92.532886,-70.957174)"><rect
       x="90.089996"
       y="81.559998"
       width="222.88"
       height="136.88"
       rx="5.7800002"
       fill="#093f68"
       id="rect13913"
       style="fill:#333333;fill-opacity:1" /><path
       d="M 307.18,219.44 H 95.87 a 6.79,6.79 0 0 1 -6.78,-6.78 V 87.34 a 6.79,6.79 0 0 1 6.78,-6.78 h 211.31 a 6.79,6.79 0 0 1 6.82,6.78 v 125.32 a 6.79,6.79 0 0 1 -6.82,6.78 z M 95.87,82.56 a 4.79,4.79 0 0 0 -4.78,4.78 v 125.32 a 4.79,4.79 0 0 0 4.78,4.78 h 211.31 a 4.79,4.79 0 0 0 4.78,-4.78 V 87.34 a 4.79,4.79 0 0 0 -4.78,-4.78 z"
       fill="#093f68"
       id="path13915"
       style="fill:#feca01;fill-opacity:1" /><path
       d="m 90.09,102.39 h 106.65 v 116 H 96.14 a 6.06,6.06 0 0 1 -6.06,-6.06 v -110 z"
       fill="#212121"
       id="path13917" /><path
       d="M 196.74,219.44 H 96.14 a 7.06,7.06 0 0 1 -7,-7.06 v -110 a 1,1 0 0 1 1,-1 h 106.6 a 1,1 0 0 1 1,1 v 116.06 a 1,1 0 0 1 -1,1 z m -105.65,-116 v 109 a 5.06,5.06 0 0 0 5,5.06 h 99.6 v -114 z"
       fill="#093f68"
       id="path13919"
       style="fill:#feca01;fill-opacity:1" /><path
       d="m 229.26,114.42 h -18.94 a 1,1 0 0 1 0,-2 h 18.94 a 1,1 0 0 1 0,2 z"
       fill="#ffffff"
       id="path13921" /><path
       d="m 255.43,126.26 h -38.89 a 1,1 0 0 1 0,-2 h 38.89 a 1,1 0 0 1 0,2 z"
       fill="#ffbc0e"
       id="path13923" /><path
       d="m 245.78,138.1 h -29.24 a 1,1 0 0 1 0,-2 h 29.24 a 1,1 0 0 1 0,2 z"
       fill="#ffbc0e"
       id="path13925" /><path
       d="m 230.35,149.94 h -16.79 a 1,1 0 0 1 0,-2 h 16.79 a 1,1 0 0 1 0,2 z"
       fill="#ffffff"
       id="path13927" /><path
       d="m 237,161.78 h -18.92 a 1,1 0 0 1 0,-2 H 237 a 1,1 0 0 1 0,2 z"
       fill="#f56132"
       id="path13929" /><path
       d="m 246.68,173.63 h -29.26 a 1,1 0 1 1 0,-2 h 29.26 a 1,1 0 0 1 0,2 z"
       fill="#ffffff"
       id="path13931" /><path
       d="m 224.53,185.47 h -14.21 a 1,1 0 0 1 0,-2 h 14.21 a 1,1 0 0 1 0,2 z"
       fill="#ffffff"
       id="path13933" /><path
       d="m 246.68,197.31 h -31.13 a 1,1 0 0 1 0,-2 h 31.13 a 1,1 0 0 1 0,2 z"
       fill="#70cc40"
       id="path13935" /><path
       d="m 276.5,197.31 h -20.44 a 1,1 0 0 1 0,-2 h 20.44 a 1,1 0 0 1 0,2 z"
       fill="#ffbc0e"
       id="path13937" /><path
       d="m 269.87,138.1 h -14.44 a 1,1 0 0 1 0,-2 h 14.44 a 1,1 0 0 1 0,2 z"
       fill="#ffffff"
       id="path13939" /><path
       d="m 290.44,126.26 h -27.79 a 1,1 0 0 1 0,-2 h 27.79 a 1,1 0 0 1 0,2 z"
       fill="#212121"
       id="path13941" /><path
       d="m 285.84,138.1 h -8.12 a 1,1 0 0 1 0,-2 h 8.12 a 1,1 0 0 1 0,2 z"
       fill="#f56132"
       id="path13943" /><path
       d="m 250.74,161.78 h -8.12 a 1,1 0 0 1 0,-2 h 8.12 a 1,1 0 0 1 0,2 z"
       fill="#f56132"
       id="path13945" /><path
       d="m 290.44,161.78 h -33 a 1,1 0 0 1 0,-2 h 33 a 1,1 0 0 1 0,2 z"
       fill="#ffbc0e"
       id="path13947" /><path
       d="m 262.65,173.63 h -7.22 a 1,1 0 0 1 0,-2 h 7.22 a 1,1 0 0 1 0,2 z"
       fill="#212121"
       id="path13949" /><path
       d="m 290.44,197.31 h -4.6 a 1,1 0 0 1 0,-2 h 4.6 a 1,1 0 0 1 0,2 z"
       fill="#ffffff"
       id="path13951" /><circle
       cx="105.17"
       cy="92.650002"
       r="3.52"
       fill="#f56132"
       id="circle13953" /><path
       d="m 105.17,97.17 a 4.52,4.52 0 1 1 4.51,-4.52 4.53,4.53 0 0 1 -4.51,4.52 z m 0,-7 a 2.52,2.52 0 1 0 2.51,2.52 2.52,2.52 0 0 0 -2.51,-2.56 z"
       fill="#093f68"
       id="path13955" /><circle
       cx="119.37"
       cy="92.650002"
       r="3.52"
       fill="#ffbc0e"
       id="circle13957" /><path
       d="m 119.37,97.17 a 4.52,4.52 0 1 1 4.52,-4.52 4.53,4.53 0 0 1 -4.52,4.52 z m 0,-7 a 2.52,2.52 0 1 0 2.52,2.52 2.52,2.52 0 0 0 -2.52,-2.56 z"
       fill="#093f68"
       id="path13959" /><circle
       cx="133.57001"
       cy="92.650002"
       r="3.52"
       fill="#70cc40"
       id="circle13961" /><path
       d="m 133.57,97.17 a 4.52,4.52 0 1 1 4.52,-4.52 4.52,4.52 0 0 1 -4.52,4.52 z m 0,-7 a 2.52,2.52 0 1 0 2.52,2.52 2.51,2.51 0 0 0 -2.52,-2.56 z"
       fill="#093f68"
       id="path13963" /><path
       d="m 123,200.46 a 4.11,4.11 0 0 1 -1.21,-3.24 V 190 a 2.54,2.54 0 0 0 -0.51,-1.85 2.85,2.85 0 0 0 -2,-0.49 v -3.51 a 2.9,2.9 0 0 0 2,-0.49 2.59,2.59 0 0 0 0.51,-1.86 v -7.18 a 4.14,4.14 0 0 1 1.21,-3.24 4.45,4.45 0 0 1 3.12,-1.09 h 2.19 v 3.51 h -0.63 a 1.91,1.91 0 0 0 -1.56,0.61 3.41,3.41 0 0 0 -0.51,2.16 v 5.86 a 3.18,3.18 0 0 1 -2.38,3.43 V 186 a 3.2,3.2 0 0 1 2.38,3.44 v 5.85 a 3.45,3.45 0 0 0 0.51,2.17 1.93,1.93 0 0 0 1.56,0.6 h 0.63 v 3.52 h -2.19 A 4.45,4.45 0 0 1 123,200.46 Z"
       fill="#093f68"
       id="path13965"
       style="fill:#feca01;fill-opacity:1" /><path
       d="m 146.67,172.28 h 3.71 l -10.77,27.33 h -3.71 z"
       fill="#093f68"
       id="path13967"
       style="fill:#feca01;fill-opacity:1" /><path
       d="m 158,198 h 0.62 a 1.93,1.93 0 0 0 1.56,-0.6 3.45,3.45 0 0 0 0.51,-2.17 v -5.85 A 3.2,3.2 0 0 1 163,186 v -0.08 a 3.18,3.18 0 0 1 -2.38,-3.43 v -5.86 a 3.41,3.41 0 0 0 -0.51,-2.16 1.91,1.91 0 0 0 -1.56,-0.61 H 158 v -3.51 h 2.18 a 4.45,4.45 0 0 1 3.12,1.09 4.14,4.14 0 0 1 1.21,3.24 v 7.18 a 2.59,2.59 0 0 0 0.51,1.86 2.9,2.9 0 0 0 2,0.49 v 3.51 a 2.85,2.85 0 0 0 -2,0.49 2.54,2.54 0 0 0 -0.51,1.85 v 7.18 a 4.11,4.11 0 0 1 -1.21,3.24 4.45,4.45 0 0 1 -3.12,1.1 H 158 Z"
       fill="#093f68"
       id="path13969"
       style="fill:#feca01;fill-opacity:1" /><rect
       x="78.220001"
       y="110.95"
       width="89.339996"
       height="48.16"
       rx="4.4400001"
       fill="#fff"
       id="rect13971"
       style="fill:#feca01;fill-opacity:1" /><path
       d="M 163.12,160.11 H 82.65 a 5.44,5.44 0 0 1 -5.43,-5.43 V 115.39 A 5.44,5.44 0 0 1 82.65,110 h 80.47 a 5.44,5.44 0 0 1 5.43,5.44 v 39.29 a 5.44,5.44 0 0 1 -5.43,5.38 z M 82.65,112 a 3.44,3.44 0 0 0 -3.43,3.44 v 39.29 a 3.44,3.44 0 0 0 3.43,3.43 h 80.47 a 3.44,3.44 0 0 0 3.43,-3.43 v -39.34 a 3.44,3.44 0 0 0 -3.43,-3.44 z"
       fill="#093f68"
       id="path13973"
       style="fill:#333333;fill-opacity:1" /><path
       d="m 110.61,131.82 a 4.8,4.8 0 0 0 -1.75,-1.34 6.42,6.42 0 0 0 -4.94,0.07 6,6 0 0 0 -2,1.47 6.83,6.83 0 0 0 -1.34,2.25 8.16,8.16 0 0 0 -0.48,2.83 8.06,8.06 0 0 0 0.48,2.84 7,7 0 0 0 1.32,2.24 6.19,6.19 0 0 0 2,1.48 5.75,5.75 0 0 0 2.44,0.52 5.37,5.37 0 0 0 2.64,-0.62 5.19,5.19 0 0 0 1.9,-1.74 l 4,3 a 8.45,8.45 0 0 1 -3.54,2.88 10.84,10.84 0 0 1 -4.42,0.94 13.54,13.54 0 0 1 -4.75,-0.81 10.87,10.87 0 0 1 -3.76,-2.32 10.52,10.52 0 0 1 -2.47,-3.65 13.42,13.42 0 0 1 0,-9.56 10.52,10.52 0 0 1 2.47,-3.65 10.87,10.87 0 0 1 3.76,-2.32 13.54,13.54 0 0 1 4.75,-0.81 12.15,12.15 0 0 1 2,0.17 10.8,10.8 0 0 1 2,0.55 8.91,8.91 0 0 1 1.88,1 7.75,7.75 0 0 1 1.62,1.52 z"
       fill="#093f68"
       id="path13975"
       style="fill:#333333;fill-opacity:1" /><path
       d="m 128.38,131.48 a 3.45,3.45 0 0 0 -1.6,-1.11 5.91,5.91 0 0 0 -1.91,-0.35 5.27,5.27 0 0 0 -1.09,0.12 3.9,3.9 0 0 0 -1,0.39 2.39,2.39 0 0 0 -0.81,0.7 1.94,1.94 0 0 0 0.43,2.58 7.31,7.31 0 0 0 1.88,0.9 c 0.76,0.25 1.57,0.5 2.44,0.74 a 10,10 0 0 1 2.44,1.06 5.86,5.86 0 0 1 1.88,1.83 5.57,5.57 0 0 1 0.75,3.08 7,7 0 0 1 -0.69,3.2 6.41,6.41 0 0 1 -1.85,2.27 7.75,7.75 0 0 1 -2.7,1.33 11.87,11.87 0 0 1 -3.25,0.44 11.65,11.65 0 0 1 -4,-0.66 9.85,9.85 0 0 1 -3.42,-2.11 l 3.45,-3.79 a 5,5 0 0 0 1.88,1.54 5.38,5.38 0 0 0 2.34,0.54 4.92,4.92 0 0 0 1.2,-0.14 3.75,3.75 0 0 0 1.09,-0.42 2.2,2.2 0 0 0 0.77,-0.71 1.76,1.76 0 0 0 0.3,-1 1.84,1.84 0 0 0 -0.76,-1.56 7,7 0 0 0 -1.91,-1 q -1.16,-0.41 -2.49,-0.81 a 10.85,10.85 0 0 1 -2.48,-1.09 5.77,5.77 0 0 1 -1.91,-1.8 5.14,5.14 0 0 1 -0.76,-2.95 6.42,6.42 0 0 1 2.56,-5.34 8.12,8.12 0 0 1 2.69,-1.36 11,11 0 0 1 3.13,-0.45 12.42,12.42 0 0 1 3.61,0.53 8.22,8.22 0 0 1 3.13,1.77 z"
       fill="#093f68"
       id="path13977"
       style="fill:#333333;fill-opacity:1" /><path
       d="m 146.21,131.48 a 3.45,3.45 0 0 0 -1.6,-1.11 5.91,5.91 0 0 0 -1.91,-0.35 5.27,5.27 0 0 0 -1.09,0.12 3.9,3.9 0 0 0 -1.05,0.39 2.39,2.39 0 0 0 -0.81,0.7 1.93,1.93 0 0 0 0.44,2.58 7.08,7.08 0 0 0 1.87,0.9 c 0.76,0.25 1.57,0.5 2.44,0.74 a 9.86,9.86 0 0 1 2.44,1.06 5.86,5.86 0 0 1 1.88,1.83 5.57,5.57 0 0 1 0.75,3.08 7,7 0 0 1 -0.69,3.2 6.41,6.41 0 0 1 -1.85,2.27 7.75,7.75 0 0 1 -2.7,1.33 11.85,11.85 0 0 1 -3.24,0.44 11.66,11.66 0 0 1 -4,-0.66 9.85,9.85 0 0 1 -3.42,-2.11 l 3.45,-3.79 a 5,5 0 0 0 1.88,1.54 5.42,5.42 0 0 0 2.35,0.54 4.89,4.89 0 0 0 1.19,-0.14 3.64,3.64 0 0 0 1.09,-0.42 2.32,2.32 0 0 0 0.78,-0.71 2,2 0 0 0 -0.47,-2.59 6.83,6.83 0 0 0 -1.91,-1 q -1.16,-0.41 -2.49,-0.81 a 10.85,10.85 0 0 1 -2.48,-1.09 5.86,5.86 0 0 1 -1.91,-1.8 5.14,5.14 0 0 1 -0.76,-2.95 6.49,6.49 0 0 1 2.56,-5.34 8.12,8.12 0 0 1 2.69,-1.36 11,11 0 0 1 3.13,-0.45 12.42,12.42 0 0 1 3.61,0.53 8.33,8.33 0 0 1 3.14,1.77 z"
       fill="#093f68"
       id="path13979"
       style="fill:#333333;fill-opacity:1" /><path
       d="M 166.51,119.55 H 78.22 a 1,1 0 0 1 0,-2 h 88.29 a 1,1 0 0 1 0,2 z"
       fill="#093f68"
       id="path13981"
       style="fill:#333333;fill-opacity:1" /></g><g
     id="_184_python_outline"
     data-name="#184_python_outline"
     transform="matrix(1.416013,0,0,1.416013,-450.59779,-65.000903)"><polygon
       points="126.03,237.77 126.03,87.06 146.29,62.23 273.96,62.23 273.96,237.77 "
       fill="#fff"
       id="polygon2"
       style="fill:#333333;fill-opacity:1" /><path
       d="M 274,238.77 H 126 a 1,1 0 0 1 -1,-1 V 87.07 a 1,1 0 0 1 0.22,-0.64 l 20.26,-24.84 a 1,1 0 0 1 0.77,-0.36 H 274 a 1,1 0 0 1 1,1 v 175.54 a 1,1 0 0 1 -1,1 z m -146.92,-2 H 273 V 63.23 H 146.77 L 127,87.42 Z"
       fill="#093f68"
       id="path4"
       style="fill:#4d4d4d" /><path
       d="m 171.7,93.3 h -25.41 a 2.5,2.5 0 0 1 0,-5 h 25.41 a 2.5,2.5 0 0 1 0,5 z"
       fill="#dfeaef"
       id="path6"
       style="fill:#ffffff;fill-opacity:1" /><path
       d="m 206.77,110.21 h -52.13 a 2.5,2.5 0 0 1 0,-5 h 52.13 a 2.5,2.5 0 0 1 0,5 z"
       fill="#dfeaef"
       id="path8"
       style="fill:#feca01;fill-opacity:1" /><path
       d="m 193.83,127.13 h -39.19 a 2.5,2.5 0 0 1 0,-5 h 39.19 a 2.5,2.5 0 1 1 0,5 z"
       fill="#dfeaef"
       id="path10"
       style="fill:#feca01;fill-opacity:1" /><path
       d="m 173.15,144 h -22.5 a 2.5,2.5 0 0 1 0,-5 h 22.5 a 2.5,2.5 0 0 1 0,5 z"
       fill="#dfeaef"
       id="path12"
       style="fill:#ffffff;fill-opacity:1" /><path
       d="m 182.1,161 h -25.4 a 2.5,2.5 0 0 1 0,-5 h 25.4 a 2.5,2.5 0 0 1 0,5 z"
       fill="#dfeaef"
       id="path14"
       style="fill:#ff7f2a;fill-opacity:1" /><path
       d="m 195,177.87 h -39.18 a 2.5,2.5 0 0 1 0,-5 H 195 a 2.5,2.5 0 0 1 0,5 z"
       fill="#dfeaef"
       id="path16"
       style="fill:#feca01;fill-opacity:1" /><path
       d="M 175.20222,194.79 H 146.29 c -3.33333,0 -3.33333,-5 0,-5 h 28.91222 c 3.33333,0 3.33333,5 0,5 z"
       fill="#dfeaef"
       id="path18"
       style="fill:#ff7f2a;fill-opacity:1"
       sodipodi:nodetypes="sssss" /><path
       d="m 195,211.7 h -41.69 a 2.5,2.5 0 0 1 0,-5 H 195 a 2.5,2.5 0 1 1 0,5 z"
       fill="#dfeaef"
       id="path20"
       style="fill:#70cc40;fill-opacity:1" /><path
       d="m 235,211.7 h -27.4 a 2.5,2.5 0 0 1 0,-5 H 235 a 2.5,2.5 0 1 1 0,5 z"
       fill="#dfeaef"
       id="path22"
       style="fill:#ffffff;fill-opacity:1" /><path
       d="m 226.13,127.13 h -19.36 a 2.5,2.5 0 1 1 0,-5 h 19.36 a 2.5,2.5 0 0 1 0,5 z"
       fill="#dfeaef"
       id="path24"
       style="fill:#212121;fill-opacity:1" /><path
       d="m 253.71,110.21 h -37.26 a 2.5,2.5 0 0 1 0,-5 h 37.26 a 2.5,2.5 0 0 1 0,5 z"
       fill="#dfeaef"
       id="path26"
       style="fill:#feca01;fill-opacity:1" /><path
       d="m 247.54,127.13 h -10.89 a 2.5,2.5 0 1 1 0,-5 h 10.89 a 2.5,2.5 0 0 1 0,5 z"
       fill="#dfeaef"
       id="path28"
       style="fill:#feca01;fill-opacity:1" /><path
       d="M 200.48,161 H 189.6 a 2.5,2.5 0 0 1 0,-5 h 10.88 a 2.5,2.5 0 0 1 0,5 z"
       fill="#dfeaef"
       id="path30"
       style="fill:#feca01;fill-opacity:1" /><path
       d="m 253.71,161 h -44.28 a 2.5,2.5 0 0 1 0,-5 h 44.28 a 2.5,2.5 0 0 1 0,5 z"
       fill="#dfeaef"
       id="path32"
       style="fill:#feca01;fill-opacity:1" /><path
       d="m 216.45,177.87 h -9.68 a 2.5,2.5 0 1 1 0,-5 h 9.68 a 2.5,2.5 0 0 1 0,5 z"
       fill="#dfeaef"
       id="path34"
       style="fill:#feca01;fill-opacity:1" /><path
       d="m 253.71,211.7 h -6.17 a 2.5,2.5 0 0 1 0,-5 h 6.17 a 2.5,2.5 0 0 1 0,5 z"
       fill="#dfeaef"
       id="path36"
       style="fill:#feca01;fill-opacity:1" /><rect
       x="211.46001"
       y="74.989998"
       width="72.139999"
       height="39.91"
       rx="4.8299999"
       fill="#525252"
       id="rect38"
       style="fill:#feca01;fill-opacity:1" /><path
       d="m 278.78,115.9 h -62.49 a 5.84,5.84 0 0 1 -5.83,-5.83 V 79.81 A 5.83,5.83 0 0 1 216.29,74 h 62.49 a 5.83,5.83 0 0 1 5.83,5.82 v 30.26 a 5.84,5.84 0 0 1 -5.83,5.82 z M 216.29,76 a 3.83,3.83 0 0 0 -3.83,3.82 v 30.26 a 3.84,3.84 0 0 0 3.83,3.83 h 62.49 a 3.84,3.84 0 0 0 3.83,-3.83 V 79.81 A 3.83,3.83 0 0 0 278.78,76 Z"
       fill="#093f68"
       id="path40"
       style="fill:#4d4d4d" /><path
       d="m 229.26,82.38 h 9.33 a 18.19,18.19 0 0 1 3.69,0.36 8.22,8.22 0 0 1 3,1.22 6.16,6.16 0 0 1 2.06,2.34 8,8 0 0 1 0.76,3.71 8.43,8.43 0 0 1 -0.71,3.69 6,6 0 0 1 -1.95,2.38 8,8 0 0 1 -2.94,1.26 17.22,17.22 0 0 1 -3.69,0.37 h -4.05 v 9.79 h -5.53 z M 234.79,93 h 3.69 a 6.76,6.76 0 0 0 1.44,-0.15 3.85,3.85 0 0 0 1.24,-0.47 2.65,2.65 0 0 0 0.89,-0.93 3,3 0 0 0 0.33,-1.47 2.45,2.45 0 0 0 -0.44,-1.54 3.06,3.06 0 0 0 -1.13,-0.91 5.05,5.05 0 0 0 -1.55,-0.41 c -0.57,-0.05 -1.11,-0.08 -1.63,-0.08 h -2.84 z"
       fill="#093f68"
       id="path42"
       style="fill:#4d4d4d" /><path
       d="m 257.78,96.79 -9.43,-14.41 h 6.88 l 5.32,9.41 5.64,-9.41 h 6.57 l -9.44,14.41 v 10.71 h -5.54 z"
       fill="#093f68"
       id="path44"
       style="fill:#4d4d4d" /><g
       id="ahcQ9Z"><path
         d="m 295.11133,189.53 a 3.31,3.31 0 0 0 -2.56,-3.09 c -1.24,-0.27 -2.49,-0.47 -3.74,-0.66 a 0.82,0.82 0 0 1 -0.74,-0.62 c -0.38,-1 -0.79,-2 -1.23,-2.95 a 0.63,0.63 0 0 1 0.07,-0.74 c 0.75,-1 1.52,-2.07 2.22,-3.15 a 3.28,3.28 0 0 0 -0.29,-4 c -1.14,-1.26 -2.37,-2.44 -3.57,-3.65 a 3.51,3.51 0 0 0 -4.79,-0.43 c -0.94,0.65 -1.87,1.31 -2.79,2 a 0.65,0.65 0 0 1 -0.75,0.08 c -1.06,-0.47 -2.13,-0.91 -3.21,-1.33 a 0.65,0.65 0 0 1 -0.48,-0.58 c -0.18,-1.14 -0.37,-2.28 -0.57,-3.43 a 3.45,3.45 0 0 0 -3.31,-3 q -2.64,-0.06 -5.28,0 a 3.34,3.34 0 0 0 -3.21,2.62 c -0.28,1.28 -0.48,2.58 -0.69,3.87 a 0.65,0.65 0 0 1 -0.48,0.58 c -1,0.41 -2.06,0.85 -3.07,1.3 a 0.59,0.59 0 0 1 -0.71,-0.06 c -1,-0.75 -2,-1.51 -3.09,-2.2 a 3.29,3.29 0 0 0 -4,0.26 c -1.34,1.23 -2.65,2.51 -3.88,3.84 a 3.39,3.39 0 0 0 -0.23,4.51 c 0.69,1 1.4,2 2.08,3 a 0.66,0.66 0 0 1 0.06,0.53 c -0.42,1.11 -0.87,2.21 -1.34,3.3 a 0.63,0.63 0 0 1 -0.41,0.34 c -1.14,0.21 -2.28,0.4 -3.43,0.58 a 3.47,3.47 0 0 0 -3.07,3.22 c -0.06,1.84 -0.05,3.68 0,5.52 a 3.3,3.3 0 0 0 2.55,3.06 c 1.3,0.3 2.64,0.5 4,0.72 a 0.63,0.63 0 0 1 0.55,0.46 c 0.41,1 0.86,2.08 1.32,3.11 a 0.57,0.57 0 0 1 -0.06,0.66 c -0.7,0.95 -1.39,1.9 -2.06,2.87 a 3.47,3.47 0 0 0 0.4,4.64 q 1.65,1.69 3.35,3.34 a 3.47,3.47 0 0 0 4.75,0.36 c 1,-0.67 1.92,-1.35 2.87,-2 a 0.53,0.53 0 0 1 0.62,0 c 1,0.42 2,0.84 3,1.21 a 0.75,0.75 0 0 1 0.54,0.69 c 0.18,1.13 0.36,2.26 0.56,3.39 a 3.42,3.42 0 0 0 3.16,3 c 1.86,0.06 3.71,0 5.57,0 a 3.35,3.35 0 0 0 3,-2.7 c 0.27,-1.25 0.46,-2.52 0.67,-3.78 a 0.72,0.72 0 0 1 0.52,-0.66 c 1,-0.4 2.06,-0.83 3.08,-1.27 a 0.59,0.59 0 0 1 0.67,0.06 c 0.94,0.7 1.91,1.37 2.86,2.05 a 3.59,3.59 0 0 0 2.31,0.7 2.94,2.94 0 0 0 2.05,-0.83 c 1.22,-1.15 2.39,-2.34 3.57,-3.52 a 3.52,3.52 0 0 0 0.43,-4.86 c -0.65,-0.93 -1.31,-1.87 -2,-2.79 a 0.59,0.59 0 0 1 -0.06,-0.67 q 0.68,-1.54 1.29,-3.12 a 0.67,0.67 0 0 1 0.59,-0.47 l 3.43,-0.56 a 3.45,3.45 0 0 0 3,-3.28 c 0.01,-1.85 0,-3.66 -0.04,-5.47 z m -28.29,14.95 a 12.21,12.21 0 1 1 12.23,-12.19 12.21,12.21 0 0 1 -12.23,12.19 z"
         fill="#f56132"
         stroke="#093f68"
         stroke-linecap="round"
         stroke-linejoin="round"
         stroke-width="2"
         id="path52"
         style="fill:#feca01;fill-opacity:1;stroke:#4d4d4d" /></g><g
       id="ahcQ9Z-2"
       data-name="ahcQ9Z"><path
         d="m 237.9,149.54912 a 2.53,2.53 0 0 0 -1.94,-2.35 c -0.94,-0.2 -1.89,-0.35 -2.84,-0.5 a 0.61,0.61 0 0 1 -0.56,-0.47 c -0.29,-0.75 -0.6,-1.5 -0.93,-2.23 a 0.48,0.48 0 0 1 0.05,-0.57 c 0.57,-0.79 1.16,-1.57 1.68,-2.39 a 2.48,2.48 0 0 0 -0.22,-3 c -0.86,-0.95 -1.8,-1.85 -2.71,-2.76 a 2.66,2.66 0 0 0 -3.63,-0.33 c -0.71,0.49 -1.42,1 -2.12,1.51 a 0.48,0.48 0 0 1 -0.56,0.06 c -0.81,-0.36 -1.62,-0.69 -2.44,-1 a 0.51,0.51 0 0 1 -0.37,-0.45 c -0.13,-0.86 -0.27,-1.73 -0.43,-2.6 a 2.62,2.62 0 0 0 -2.51,-2.25 c -1.33,0 -2.67,0 -4,0 a 2.55,2.55 0 0 0 -2.43,2 c -0.21,1 -0.36,2 -0.52,2.94 a 0.51,0.51 0 0 1 -0.37,0.44 c -0.78,0.31 -1.56,0.64 -2.33,1 a 0.45,0.45 0 0 1 -0.53,0 c -0.78,-0.57 -1.55,-1.14 -2.35,-1.67 a 2.49,2.49 0 0 0 -3.07,0.19 c -1,0.94 -2,1.91 -2.95,2.92 a 2.57,2.57 0 0 0 -0.17,3.42 c 0.52,0.75 1.06,1.49 1.58,2.24 a 0.47,0.47 0 0 1 0,0.4 c -0.32,0.84 -0.66,1.68 -1,2.51 a 0.55,0.55 0 0 1 -0.32,0.26 c -0.86,0.16 -1.73,0.3 -2.6,0.44 a 2.61,2.61 0 0 0 -2.32,2.44 c 0,1.39 0,2.79 0,4.18 a 2.5,2.5 0 0 0 1.92,2.33 c 1,0.22 2,0.38 3,0.55 a 0.47,0.47 0 0 1 0.42,0.34 c 0.31,0.8 0.65,1.58 1,2.36 a 0.44,0.44 0 0 1 -0.05,0.51 c -0.53,0.71 -1.05,1.43 -1.56,2.17 a 2.63,2.63 0 0 0 0.31,3.52 c 0.83,0.86 1.68,1.7 2.53,2.54 a 2.64,2.64 0 0 0 3.61,0.27 c 0.73,-0.51 1.46,-1 2.18,-1.55 a 0.41,0.41 0 0 1 0.47,0 c 0.74,0.32 1.49,0.64 2.24,0.92 a 0.57,0.57 0 0 1 0.42,0.53 c 0.13,0.85 0.27,1.71 0.42,2.56 a 2.6,2.6 0 0 0 2.4,2.25 c 1.4,0 2.81,0 4.22,0 a 2.53,2.53 0 0 0 2.34,-2 c 0.2,-0.95 0.35,-1.91 0.51,-2.87 a 0.56,0.56 0 0 1 0.39,-0.5 c 0.79,-0.3 1.57,-0.63 2.34,-1 a 0.45,0.45 0 0 1 0.51,0.05 c 0.72,0.53 1.45,1 2.17,1.56 a 2.78,2.78 0 0 0 1.75,0.53 2.25,2.25 0 0 0 1.56,-0.64 c 0.92,-0.86 1.81,-1.77 2.71,-2.66 a 2.68,2.68 0 0 0 0.33,-3.69 c -0.5,-0.71 -1,-1.42 -1.52,-2.12 a 0.47,0.47 0 0 1 0,-0.51 c 0.35,-0.78 0.68,-1.57 1,-2.36 a 0.5,0.5 0 0 1 0.46,-0.36 c 0.86,-0.13 1.73,-0.28 2.6,-0.43 a 2.61,2.61 0 0 0 2.27,-2.48 c 0,-1.46 -0.01,-2.83 -0.04,-4.2 z m -21.46,11.34 a 9.26,9.26 0 1 1 9.28,-9.25 9.26,9.26 0 0 1 -9.28,9.25 z"
         fill="#ffbc0e"
         stroke="#093f68"
         stroke-linecap="round"
         stroke-linejoin="round"
         stroke-width="2"
         id="path55"
         style="fill:#ff7f2a;fill-opacity:1;stroke:#4d4d4d" /></g><g
       id="g8097"
       transform="translate(0,3.9408866)"><g
         id="g8090"><path
           d="m 126.94,226.77 v -32 H 166 v -34.1 c 0,-10.56 -7.78,-19.13 -17.38,-19.13 h -9.75 c -9.6,0 -17.38,8.57 -17.38,19.13 v 6.44 h -9 c -7.5,0 -13.57,6.69 -13.57,14.93 v 29.8 c 0,8.25 6.07,14.93 13.57,14.93 z"
           fill="#525252"
           id="path46"
           style="fill:#feca01;fill-opacity:1" /><path
           d="m 126.94,227.77 h -14.5 c -8,0 -14.57,-7.14 -14.57,-15.93 V 182 c 0,-8.78 6.53,-15.93 14.57,-15.93 h 8 v -5.44 c 0,-11.1 8.25,-20.13 18.38,-20.13 h 9.75 c 10.14,0 18.38,9 18.38,20.13 v 34.14 a 1,1 0 0 1 -1,1 h -38.01 v 31 a 1,1 0 0 1 -1,1 z m -14.5,-59.66 c -6.93,0 -12.57,6.25 -12.57,13.93 v 29.8 c 0,7.68 5.64,13.93 12.57,13.93 h 13.5 v -31 a 1,1 0 0 1 1,-1 H 165 v -33.1 c 0,-10 -7.35,-18.13 -16.38,-18.13 h -9.75 c -9,0 -16.38,8.14 -16.38,18.13 v 6.44 a 1,1 0 0 1 -1,1 z"
           fill="#093f68"
           id="path48"
           style="fill:#4d4d4d" /><circle
           cx="134.53"
           cy="156.41"
           r="3.2"
           fill="#093f68"
           id="circle50"
           style="fill:#4d4d4d" /><path
           d="m 147.56,168.11 h -26.07 a 1,1 0 0 1 0,-2 h 26.07 a 1,1 0 0 1 0,2 z"
           fill="#093f68"
           id="path58"
           style="fill:#4d4d4d" /></g></g></g></svg>
