<?xml version="1.0" encoding="utf-8"?>
<!-- Generator: Adobe Illustrator 25.0.0, SVG Export Plug-In . SVG Version: 6.00 Build 0)  -->
<svg version="1.1"
	 id="svg5" inkscape:version="1.2 (dc2aedaf03, 2022-05-15)" xmlns:inkscape="http://www.inkscape.org/namespaces/inkscape" xmlns:sodipodi="http://sodipodi.sourceforge.net/DTD/sodipodi-0.dtd" xmlns:svg="http://www.w3.org/2000/svg"
	 xmlns="http://www.w3.org/2000/svg" xmlns:xlink="http://www.w3.org/1999/xlink" x="0px" y="0px" viewBox="0 0 841.9 595.3"
	 style="enable-background:new 0 0 841.9 595.3;" xml:space="preserve">
<style type="text/css">
	.st0{enable-background:new    ;}
	.st1{fill:#282829;}
	.st2{fill:#F9B331;}
	.st3{opacity:0.63;fill:#EA592D;}
	.st4{fill:#1A1A1A;}
	.st5{fill:#FAB435;}
	.st6{font-family:'BadaBoomBB';}
	.st7{font-size:44.4849px;}
</style>
<sodipodi:namedview  bordercolor="#eeeeee" borderopacity="1" id="namedview7" inkscape:current-layer="layer1" inkscape:cx="729.03176" inkscape:cy="415.23525" inkscape:deskcolor="#505050" inkscape:document-units="mm" inkscape:pagecheckerboard="0" inkscape:pageopacity="0" inkscape:showpageshadow="0" inkscape:window-height="837" inkscape:window-maximized="1" inkscape:window-width="1440" inkscape:window-x="-8" inkscape:window-y="-8" inkscape:zoom="0.52741187" pagecolor="#505050" showgrid="false" showguides="true">
	</sodipodi:namedview>
<g class="st0">
	<path class="st1" d="M579.1-361.1l53.7-10c-15,57.7-26.6,110.9-34.7,159.6l53-6.3l-3.1,50.5c-28.3,2.5-63.9,15.1-107.5,27
		L579.1-361.1z"/>
</g>
<path class="st1" d="M730-207.8c0.5,0.4,16.3,12.7,36.1-11.2c-22.4,23.2-36.5-19.6-73-21.3c-14.8-0.7-31,6.8-36.2,22.2l-0.9,15.9
	l-1.9,34.8c9.6,7.8,19.1,11.6,28.3,12.4c44.6,4,81.8-60.8,83.6-63.8C764.8-216.9,747.5-189.7,730-207.8z"/>
<g class="st0">
	<path class="st1" d="M967.4,10l53.7-10c-15,57.7-26.6,110.9-34.7,159.6l53-6.3l-3.1,50.5c-28.3,2.5-63.9,15.1-107.5,27L967.4,10z"
		/>
</g>
<path class="st1" d="M1118.2,163.3c0.5,0.4,16.3,12.7,36.1-11.2c-22.4,23.2-36.5-19.6-73-21.3c-14.8-0.7-31,6.8-36.2,22.2l-0.9,15.9
	l-1.9,34.8c9.6,7.8,19.1,11.6,28.3,12.4c44.6,4,81.8-60.8,83.6-63.8C1153,154.2,1135.8,181.4,1118.2,163.3z"/>
<text transform="matrix(1 0 0 1 528.0432 -34.3069)" class="st0"><tspan x="0" y="0" class="st4 st6" style="font-size:29.1725px;">Design </tspan><tspan x="74.6" y="0" class="st5 st6" style="font-size:29.1725px;">and</tspan><tspan x="111.7" y="0" class="st4 st6" style="font-size:29.1725px;"> code</tspan></text>
<polygon class="st2" points="1070.4,467.8 1054.2,460.4 1053.5,460.1 1048.6,457.9 1021.4,445.4 1012.7,441.4 1003.5,437.3 
	998.8,435.1 957.1,416 952.4,413.9 940.1,408.3 954.7,400.7 960.2,397.9 1011.4,371.5 1017.2,368.6 1070.4,341.2 1080.9,289 
	1029.1,317.5 1023.2,320.7 968.4,350.8 962.8,353.9 884.5,397 874.1,422.2 945.1,455.6 949.8,457.8 1029.2,495.1 1037.1,498.8 
	1080.7,519.4 1077.7,504.4 "/>
<polygon class="st3" points="965.8,-29.4 949.9,-36.8 949.2,-37.1 944.4,-39.3 917.5,-51.7 908.9,-55.7 899.8,-59.9 895.2,-62.1 
	853.9,-81.1 849.3,-83.3 837.1,-88.9 851.6,-96.4 857.1,-99.3 907.6,-125.6 913.3,-128.6 965.9,-154.9 976.3,-206.5 782.2,-99.8 
	771.9,-74.9 976.1,21.1 973.1,7.2 "/>
<g class="st0">
	<path class="st1" d="M650.7-223.7l-45.3,5.4c2.3-13.3,4.9-26.9,7.7-40.9c7-34.8,15.5-71.7,25.6-110.3l2.4-9.1l-67.1,12.5L533.2-132
		l9.1-2.5c12.1-3.3,23.5-6.6,34.5-9.8c27.9-8.2,52.1-15.2,72-17l5.1-0.5l0.9-15l2.7-44l0.2-3.9L650.7-223.7z M646.1-180.7l-4.7-2.2
		l-71-33.4l10.4-25.2l25.4-14c-3,15.1-5.7,29.8-8,44l53-6.3l-2.3,38.3L646.1-180.7z"/>
	<path class="st1" d="M646.1-180.7l-4.7-2.2l-71-33.4l10.4-25.2l25.4-14c7.2-36.3,16-74.8,26.6-115.6l-53.7,10l-38.4,220.9
		c43.5-11.9,79.1-24.5,107.5-27l0.7-12.2L646.1-180.7z"/>
</g>
<path class="st4" d="M397.6,194.2l-97,50l15.3-88.2l103.5-57C411.5,131.6,404.3,163.3,397.6,194.2z"/>
<path class="st1" d="M423.8,81.5l-104.9,57.7l13.5-77.7c1.2-6.8,6.5-12.2,13.3-13.5l76.5-14.2c6.7-1.2,12.4,4.9,10.7,11.4
	C429.8,57.4,426.7,69.5,423.8,81.5z"/>
<path class="st1" d="M551.9,444c-3.5,0.7-7-1.7-7.8-5.2l0,0l-13.4-67.4c-1.1-5.6-4.9-10.4-10.1-12.8l-28.3-13.1l0,0
	c-6-2.8-9.7-8.9-9.4-15.6l0.1-1.2c0.2-3.1,0.8-6.3,1.9-9.2c9.9-26.3,24.4-40.9,67.3-37.6c72.6,5.6,63.6,68.5,124,49.5
	c1.2-0.4,2.3,1,1.5,2.1c-3.5,5.1-11.7,15-25.2,18.9c-1.1,0.3-0.9,1.8,0.2,1.9c8.1,0.6,23.1-1.3,36.6-19.9c0.3-0.4,1-0.1,0.8,0.4
	C685,350.8,654.7,425.1,551.9,444z"/>
<path class="st1" d="M465.1,325.1c3.8-0.4,7,2.7,6.8,6.5l-0.2,3.9l-0.1,2.4l-0.6,11.9l-3.3,60.7c-0.3,5.9-4.8,10.8-10.7,11.5
	c-4.5,0.6-9.2,1.2-13.9,2c-7.2,1.2-14.7,2.6-22.4,4.2c-42.8,8.9-92.7,23.8-149.1,39.4c-4.8,1.3-9.3-2.8-8.5-7.7l17-97.8l2.4-13.6
	l13.7-78.5l1.7-9.6l4.7-2.2L394,211c-5.9,27.9-11.2,55.1-16.1,81.6c-0.8,4.5-1.6,9-2.4,13.5c-1.2,6.6-2.3,13.2-3.4,19.7
	c-0.8,4.5,3,8.4,7.5,8l46.2-4.7l26.2-2.7h0L465.1,325.1z"/>
<g>
	<g>
		<path class="st5" d="M533.8,50.4c1.3-6.3-5.4-11.2-11.1-8.1L419.4,99l-103.5,57l-140.7,77.4c-5,2.8-9,7.2-11.2,12.5l-11.4,27.7
			c-2.7,6.5,0.2,13.9,6.5,16.9l110.8,52.1l13-74.9l0.6-3.4l-7-3.2c-1.9-0.9-1.9-3.5-0.1-4.4l9.2-4.7l10.7-5.5l0.2-0.1l101-52
			l15.2-7.8l93.3-48c7-3.6,12-10.2,13.5-17.9L533.8,50.4z"/>
		<path class="st5" d="M388,319.6l10.1-1c1-0.1,1.3-1.5,0.3-1.9l-9.2-4.2c-0.6-0.3-1.3,0.1-1.4,0.7c-0.3,1.7-0.6,3.5-0.9,5.2
			C386.8,319.1,387.3,319.7,388,319.6z"/>
		<path class="st5" d="M531.9,444.5l-14.3-70.3c-0.3-1.5-1.3-2.7-2.6-3.3l-24.8-11.4c-3-1.4-6.5,0.7-6.7,4l-3.6,65.7l0,0
			c-0.1,2.3-2,4.2-4.3,4.4c0,0-4,0.4-7,0.6c-0.9,0.1-1.1,1.3-0.3,1.7l59.9,28.1c3.5,1.6,7.4-1.4,6.6-5.2L531.9,444.5
			C531.9,444.5,531.9,444.5,531.9,444.5z"/>
	</g>
</g>
<g>
	<text transform="matrix(1 0 0 1 296.5005 531.1455)" class="st0"><tspan x="0" y="0" class="st1 st6 st7">DISENO</tspan><tspan x="105.4" y="0" class="st4 st6 st7"> </tspan><tspan x="114" y="0" class="st5 st6 st7">Y</tspan><tspan x="130.8" y="0" class="st4 st6 st7"> </tspan><tspan x="139.4" y="0" class="st1 st6 st7">codIGO</tspan></text>
	<polygon class="st1" points="469,493.8 472.8,494.7 477.1,488 471.7,487 	"/>
	<path class="st1" d="M365.6,495.6c0,0,4.1-4.2,8.5-2.2c4.6,2.1,7.6,1.1,7.6,1.1l1.9-3.3c0,0-4.8,1.1-8.4-1.3
		c-4.2-2.9-11,1.9-11,1.9L365.6,495.6z"/>
</g>
</svg>
